<svg width="37" height="18" viewBox="0 0 37 18" fill="none" xmlns="http://www.w3.org/2000/svg">
<path id="Emissions" d="M33.144 0C32.3783 0.000794159 31.6442 0.305319 31.1028 0.846752C30.5613 1.38819 30.2568 2.1223 30.256 2.888C30.256 3.275 30.335 3.644 30.474 3.982L21.925 11.939C21.5667 11.6991 21.1588 11.5432 20.7319 11.4827C20.3049 11.4223 19.8698 11.459 19.459 11.59L16.727 8.148C16.931 7.747 17.051 7.307 17.051 6.844C17.051 5.252 15.756 3.956 14.163 3.956C12.57 3.956 11.275 5.252 11.275 6.844C11.275 6.99 11.302 7.13 11.323 7.272L4.428 12.679C3.96836 12.3841 3.43409 12.2266 2.888 12.225C2.1223 12.2258 1.38819 12.5303 0.846753 13.0718C0.30532 13.6132 0.000794159 14.3473 0 15.113C0 16.706 1.295 18.002 2.888 18.002C4.481 18.002 5.776 16.706 5.776 15.113C5.776 14.819 5.719 14.54 5.637 14.273L12.304 9.045C12.322 9.06 12.335 9.08 12.353 9.094C12.7557 9.41753 13.2377 9.62738 13.7488 9.70177C14.26 9.77615 14.7818 9.71235 15.26 9.517L17.887 12.827C17.607 13.277 17.439 13.792 17.439 14.341C17.4395 15.1069 17.7439 15.8412 18.2854 16.3829C18.8269 16.9245 19.5611 17.2292 20.327 17.23C21.0928 17.2289 21.8269 16.9242 22.3683 16.3826C22.9097 15.841 23.2142 15.1068 23.215 14.341C23.2112 14.083 23.1725 13.8266 23.1 13.579L31.836 5.449C32.231 5.652 32.671 5.777 33.145 5.777C34.737 5.777 36.033 4.481 36.033 2.889C36.033 1.297 34.737 0 33.144 0ZM2.888 16C2.77126 15.9999 2.65568 15.9767 2.54787 15.9319C2.44006 15.8871 2.34213 15.8216 2.25968 15.7389C2.17722 15.6563 2.11184 15.5582 2.06729 15.4503C2.02273 15.3424 1.99987 15.2267 2 15.11C2.00013 14.9933 2.02326 14.8777 2.06805 14.7699C2.11285 14.6621 2.17845 14.5641 2.26109 14.4817C2.34373 14.3992 2.44181 14.3338 2.54972 14.2893C2.65763 14.2447 2.77326 14.2219 2.89 14.222C3.12578 14.2223 3.35179 14.3162 3.51832 14.4831C3.68486 14.65 3.77826 14.8762 3.778 15.112C3.77773 15.3478 3.68382 15.5738 3.51691 15.7403C3.35 15.9069 3.12378 16.0003 2.888 16ZM13.608 7.536C13.4656 7.42043 13.3624 7.2637 13.3125 7.08724C13.2626 6.91079 13.2684 6.72322 13.3291 6.55019C13.3899 6.37716 13.5026 6.22712 13.6518 6.12058C13.8011 6.01404 13.9796 5.95621 14.163 5.955C14.3383 5.95544 14.5096 6.00771 14.6553 6.10523C14.801 6.20276 14.9146 6.34119 14.9818 6.50311C15.0491 6.66504 15.0669 6.84322 15.0331 7.01526C14.9993 7.1873 14.9155 7.34551 14.792 7.47V7.471H14.791C14.439 7.821 13.82 7.706 13.608 7.536ZM20.327 15.229C20.1417 15.2284 19.9612 15.1699 19.8107 15.0617C19.6603 14.9535 19.5474 14.8009 19.4879 14.6254C19.4284 14.4499 19.4253 14.2602 19.4789 14.0828C19.5325 13.9054 19.6402 13.7492 19.787 13.636C19.791 13.633 19.797 13.632 19.801 13.628L19.802 13.627C19.9535 13.5128 20.1383 13.4513 20.328 13.452C20.5547 13.4653 20.7678 13.5648 20.9235 13.73C21.0793 13.8953 21.166 14.1139 21.1659 14.341C21.1657 14.5681 21.0788 14.7865 20.9228 14.9516C20.7669 15.1167 20.5537 15.2159 20.327 15.229ZM33.144 3.776C33.0248 3.77993 32.9061 3.75984 32.7948 3.71693C32.6835 3.67401 32.582 3.60915 32.4963 3.52621C32.4107 3.44326 32.3425 3.34392 32.2961 3.2341C32.2496 3.12429 32.2256 3.00624 32.2257 2.88698C32.2258 2.76773 32.2498 2.64971 32.2964 2.53994C32.3431 2.43018 32.4113 2.33092 32.4971 2.24807C32.5828 2.16521 32.6844 2.10047 32.7957 2.05768C32.907 2.01489 33.0258 1.99493 33.145 1.999C33.3755 2.00686 33.5939 2.10398 33.7541 2.26985C33.9143 2.43573 34.0038 2.65737 34.0037 2.88798C34.0036 3.1186 33.9138 3.34014 33.7534 3.50583C33.593 3.67152 33.3745 3.7684 33.144 3.776Z" fill="#94E8B4"/>
</svg>
