<svg width="29" height="26" viewBox="0 0 29 26" fill="none" xmlns="http://www.w3.org/2000/svg">
<path id="Home" d="M10.1857 23.8218V19.9834C10.1857 19.0036 11.1061 18.2093 12.2414 18.2093H16.3917C16.937 18.2093 17.4598 18.3962 17.8454 18.7289C18.2309 19.0616 18.4475 19.5129 18.4475 19.9834V23.8218C18.444 24.2292 18.6291 24.6209 18.9617 24.91C19.2943 25.1991 19.7468 25.3617 20.2188 25.3617H23.0503C24.3727 25.3646 25.6422 24.9133 26.5785 24.1074C27.5148 23.3014 28.041 22.2071 28.041 21.0658V10.1307C28.041 9.20882 27.5675 8.33435 26.7481 7.74287L17.1158 1.10374C15.4402 -0.0603253 13.0395 -0.0227405 11.414 1.19301L2.00146 7.74287C1.14334 8.31691 0.630448 9.19398 0.605103 10.1307V21.0546C0.605103 23.4333 2.83951 25.3617 5.5958 25.3617H8.36266C9.34304 25.3617 10.1398 24.6791 10.1469 23.833L10.1857 23.8218Z" fill="#2DF8BB"/>
</svg>
