<svg width="37" height="26" viewBox="0 0 37 26" fill="none" xmlns="http://www.w3.org/2000/svg">
<path id="Leaderbord" d="M36.9367 4.29088C36.9215 3.95664 36.5177 3.69097 36.0247 3.69097H29.9965V0.619048C29.9965 0.277179 29.588 0 29.084 0H7.91599C7.41201 0 7.00354 0.277179 7.00354 0.619048V3.69097H0.975273C0.482321 3.69097 0.0784849 3.95659 0.0632773 4.29088C-0.046521 6.70186 -0.150388 8.97918 1.01253 10.6684C2.18967 12.3783 4.52889 13.4147 8.56649 14.0061C10.0719 15.9759 12.5729 17.5587 15.6636 18.4209V18.7285C15.6636 20.963 13.1934 22.8239 9.9173 23.0568C9.79031 23.0659 9.66234 23.0742 9.53354 23.0817C9.06165 23.1093 8.69925 23.3772 8.69925 23.6985V25.381C8.69925 25.7228 9.10772 26 9.6117 26H27.3883C27.8923 26 28.3008 25.7228 28.3008 25.381V23.6985C28.3008 23.3772 27.9384 23.1093 27.4665 23.0818C27.3377 23.0742 27.2097 23.0659 27.0823 23.0569C23.8066 22.8239 21.3364 20.9631 21.3364 18.7285V18.4209C24.427 17.5587 26.9281 15.9759 28.4335 14.0062C32.4711 13.4148 34.8103 12.3785 35.9875 10.6684C37.1503 8.97918 37.0465 6.70186 36.9367 4.29088ZM1.86164 4.92906H7.00354V9.65704C7.00354 10.6737 7.24381 11.659 7.68955 12.5858C2.06352 11.5157 1.68729 9.40431 1.86164 4.92906ZM26.4759 24.2514V24.7619H10.5241V24.2514C14.4732 23.8346 17.4142 21.5608 17.4867 18.8317C17.7634 18.88 18.0435 18.9232 18.3272 18.9603C18.3842 18.9678 18.4421 18.9715 18.4999 18.9715C18.5577 18.9715 18.6155 18.9678 18.6726 18.9603C18.9563 18.9232 19.2364 18.88 19.5131 18.8317C19.5857 21.561 22.5266 23.8349 26.4759 24.2514ZM18.5 17.7212C12.8852 16.9297 8.82844 13.5575 8.82844 9.65709V1.2381H28.1716V9.65704C28.1715 13.5575 24.1147 16.9297 18.5 17.7212ZM29.3104 12.5858C29.7561 11.659 29.9964 10.6737 29.9964 9.65709V4.92912H35.1383C35.3126 9.40437 34.9364 11.5157 29.3104 12.5858ZM23.7111 6.37676L20.8926 6.31661L19.9374 4.51667C19.7166 4.10026 19.1524 3.83118 18.5 3.83118C17.8479 3.83118 17.2837 4.10021 17.0628 4.51652L16.1075 6.31661L13.2889 6.37676C12.6371 6.39069 12.0857 6.67158 11.884 7.09233C11.6825 7.51312 11.8852 7.96028 12.4005 8.23158L14.6287 9.40421L13.8421 11.2414C13.6601 11.6663 13.8834 12.1089 14.4111 12.3691C14.6818 12.5024 14.9949 12.5693 15.3086 12.5693C15.6065 12.5693 15.905 12.5089 16.1677 12.3878L18.5 11.3125L20.8323 12.3879C21.3718 12.6366 22.0612 12.6292 22.589 12.3691C23.1167 12.109 23.34 11.6664 23.158 11.2415L22.3713 9.40431L24.5996 8.23163C25.1147 7.96044 25.3175 7.51333 25.1161 7.09238C24.9144 6.67153 24.363 6.39069 23.7111 6.37676ZM18.2203 4.93603L18.2207 4.93685C18.2205 4.93649 18.2204 4.93618 18.2202 4.93587C18.2202 4.93592 18.2202 4.93598 18.2203 4.93603ZM20.892 8.61596C20.5159 8.81395 20.3587 9.1423 20.4915 9.45234L21.1752 11.0491L19.1481 10.1145C18.9512 10.0237 18.7256 9.97832 18.5 9.97832C18.2744 9.97832 18.0486 10.0237 17.8517 10.1145L15.8247 11.0491L16.5084 9.45244C16.6412 9.14225 16.4841 8.8139 16.1078 8.6158L14.1713 7.59664L16.6212 7.54438C17.0968 7.53417 17.5084 7.33123 17.6698 7.02743L18.5 5.46294L19.3301 7.02702C19.4911 7.33107 19.9028 7.53412 20.3791 7.54433L22.8286 7.59659L20.892 8.61596Z" fill="#94E8B4"/>
</svg>
